<?xml version="1.0" encoding="UTF-8" standalone="no"?>
<svg width="1436px" height="1436px" viewBox="0 0 1436 1436" version="1.1" xmlns="http://www.w3.org/2000/svg" xmlns:xlink="http://www.w3.org/1999/xlink" xmlns:sketch="http://www.bohemiancoding.com/sketch/ns">
    <!-- Generator: Sketch 3.2 (9961) - http://www.bohemiancoding.com/sketch -->
    <title>logo</title>
    <desc>Created with Sketch.</desc>
    <defs>
        <radialGradient cx="56.4284444%" cy="39.8007704%" fx="56.4284444%" fy="39.8007704%" r="47.468561%" id="radialGradient-1">
            <stop stop-color="#0B93F1" offset="0%"></stop>
            <stop stop-color="#0D5CD5" offset="100%"></stop>
        </radialGradient>
    </defs>
    <g id="Page-1" stroke="none" stroke-width="1" fill="none" fill-rule="evenodd" sketch:type="MSPage">
        <g id="logo" sketch:type="MSArtboardGroup">
            <rect id="Rectangle-2" fill="url(#radialGradient-1)" sketch:type="MSShapeGroup" x="0" y="0" width="1436" height="1436" rx="40"></rect>
            <path d="M366.032879,276.954986 C415.441105,231.721551 484.101659,214.394227 549.705563,213.117477 C622.517686,212.889486 695.284186,213.071879 768.096309,213.026281 C859.704543,213.755852 953.411372,240.385213 1024.85485,299.298114 C1092.64859,353.286407 1135.71541,434.861624 1148.48946,520.0391 C1157.93314,589.576387 1153.27974,662.168754 1127.54914,727.921388 C1098.80751,804.344006 1041.05052,868.956685 969.196456,907.441583 C910.435796,939.04115 843.736972,954.225357 777.311878,956.186081 C678.860399,956.140483 580.454542,956.140483 482.048685,956.140483 C481.866199,1116.41823 482.094307,1276.65038 481.91182,1436.88252 C419.683916,1437.11051 357.501634,1436.92812 295.27373,1436.97372 C294.72627,1105.33786 295.228108,773.656404 295,442.020545 C295.136865,380.554143 319.63568,318.175778 366.032879,276.954986 L366.032879,276.954986 Z M482.286633,381.127853 C481.829933,516.338387 482.012613,651.548922 482.195293,786.759456 C570.110088,787.169047 658.070554,786.941496 745.985349,786.895986 C804.305969,786.122314 866.006171,772.241731 909.301353,730.827532 C949.171283,693.281692 968.215683,637.258747 965.795172,583.238248 C967.667643,528.171016 947.070462,471.055829 905.282391,433.96509 C864.68174,397.147411 808.781631,381.901525 754.845333,381.264383 C664.007657,380.763772 573.12431,381.127853 482.286633,381.127853 L482.286633,381.127853 Z" id="Imported-Layers" fill="#FFFFFF" sketch:type="MSShapeGroup"></path>
        </g>
    </g>
</svg>